# xmcd
#
# Track frame offsets: 
#        150
#        14228
#        27025
#        40313
#        52294
#        64054
#        76199
#        87739
#        101999
#        116624
#        130293
#        142202
#        155929
#        165995
#        175786
#        188400
#        198828
#        215992
#        228170
#        239616
#
# Disc length: 3368 seconds
#
# Revision: 1
# Processed by: cddbd v1.5.2PL0 Copyright (c) Steve Scherf et al.
# Submitted via: ExactAudioCopy v0.99pb4
#
DISCID=290d2614
DTITLE=Various Artist - 100 Tubes Blues.1950's [CD3)
DYEAR=2010
DGENRE=Blues
TTITLE0=Howlin' Wolf - Smokestack Lightnin
TTITLE1=Muddie Waters - Hoochie Coochie Man
TTITLE2=Little Junior Parker - Feelin' Good
TTITLE3=T-Bone Walker - Alimony Blues
TTITLE4=Lil' Son Jackson - Travelin' Woman
TTITLE5=Memphis Slim - Mother Earth
TTITLE6=Sonny Boy Williamson - Don't Start Me Talkin'
TTITLE7=Lowell Fulson - Reconsider Baby
TTITLE8=Third Degree - Third Degree
TTITLE9=B.B. King - You Upset Me Baby
TTITLE10=Little Walter - My Babe
TTITLE11=Willie Dixon - Walking The Blues
TTITLE12=Jimmy Reed - Ain't That Lovin' You Baby
TTITLE13=John Lee Hooker - Dimples
TTITLE14=Jimmy Rogers - Walking By Myself
TTITLE15=J.B. Lenoir - Mama Talk To You Daughter
TTITLE16=Jody Williams - Lucky Lou
TTITLE17=Larry Davis - Texas Flood
TTITLE18=Fenton Robinson - As The Years Go Passing By
TTITLE19=Elmore James - Dust My Broom
EXTD=YEAR: 1959
EXTT0=
EXTT1=
EXTT2=
EXTT3=
EXTT4=
EXTT5=
EXTT6=
EXTT7=
EXTT8=
EXTT9=
EXTT10=
EXTT11=
EXTT12=
EXTT13=
EXTT14=
EXTT15=
EXTT16=
EXTT17=
EXTT18=
EXTT19=
PLAYORDER=
